#N canvas 566 250 724 454 10;
#N canvas 375 101 501 551 bg_controls 0;
#X obj 21 21 cnv 15 298 298 empty empty Background 20 12 0 22 -204800
-66577 0;
#X obj 38 92 vsl 15 80 0 127 0 0 empty empty Hue 0 -9 0 10 -261234
-1 -1 0 1;
#X obj 97 92 vsl 15 80 0 127 0 0 empty empty Bright 0 -9 0 10 -262144
-1 -1 0 1;
#X obj 67 92 vsl 15 80 0 127 0 0 empty empty Sat 0 -9 0 10 -228856
-1 -1 0 1;
#X text 50 56 BG Color;
#X obj 159 92 vsl 15 80 0 127 0 0 empty empty Hue 0 -9 0 10 -261234
-1 -1 0 1;
#X obj 230 92 vsl 15 80 0 127 0 0 empty empty Bright 0 -9 0 10 -262144
-1 -1 7900 1;
#X obj 194 92 vsl 15 80 0 127 0 0 empty empty Sat 0 -9 0 10 -228856
-1 -1 0 1;
#X text 167 58 Spot Color;
#X obj 42 494 ctlout;
#X obj 271 92 vsl 15 80 0 127 0 0 empty empty Alpha 0 -9 0 10 -262130
-1 -1 7900 1;
#X obj 37 204 grid grid2 120 0 127 100 0 127 1 1 1 1 1 97 -66;
#X obj 389 52 loadbang;
#X msg 389 84 color 255 255 255;
#X text 34 182 Spot Center;
#X obj 42 460 list append 1;
#X msg 42 328 \$1 10;
#X msg 50 350 \$1 11;
#X msg 62 374 \$1 12;
#X msg 99 328 \$1 13;
#X msg 105 351 \$1 14;
#X msg 153 332 \$1 15;
#X msg 136 373 \$1 16;
#X msg 202 334 \$1 17;
#X msg 262 370 \$1 18;
#X msg 2 393 \$1 19;
#X obj 261 341 expr 127-$f1;
#X obj 176 203 vsl 15 100 0 127 0 0 empty empty Spot_Radius 0 -12 0
10 -262144 -1 -1 8200 1;
#X connect 1 0 16 0;
#X connect 2 0 18 0;
#X connect 3 0 17 0;
#X connect 5 0 19 0;
#X connect 6 0 21 0;
#X connect 7 0 20 0;
#X connect 10 0 22 0;
#X connect 11 0 23 0;
#X connect 11 1 26 0;
#X connect 12 0 13 0;
#X connect 13 0 11 0;
#X connect 15 0 9 0;
#X connect 16 0 15 0;
#X connect 17 0 15 0;
#X connect 18 0 15 0;
#X connect 19 0 15 0;
#X connect 20 0 15 0;
#X connect 21 0 15 0;
#X connect 22 0 15 0;
#X connect 23 0 15 0;
#X connect 24 0 15 0;
#X connect 25 0 15 0;
#X connect 26 0 24 0;
#X connect 27 0 25 0;
#X coords 0 -1 1 1 300 300 2 20 20;
#X restore 26 -237 pd bg_controls;
#N canvas 390 256 561 365 switches 0;
#X obj 101 101 cnv 15 338 98 empty empty Elements 20 12 0 20 -204786
-66577 0;
#X obj 114 136 tgl 20 0 empty empty User 22 9 0 12 -262144 -1 -1 0
127;
#X obj 114 169 tgl 20 0 empty empty User_Trails 22 9 0 12 -262144 -1
-1 0 127;
#X obj 225 136 tgl 20 0 empty empty Hands 22 9 0 12 -262144 -1 -1 0
127;
#X obj 225 169 tgl 20 0 empty empty Hand_Trails 22 9 0 12 -262144 -1
-1 0 127;
#X obj 332 136 tgl 20 0 empty empty Poi 22 9 0 12 -262144 -1 -1 0 127
;
#X obj 332 169 tgl 20 0 empty empty Poi_Trails 22 9 0 12 -262144 -1
-1 0 127;
#X obj 213 328 ctlout;
#X msg 107 216 \$1 1;
#X msg 108 239 \$1 2;
#X msg 219 215 \$1 3;
#X msg 228 240 \$1 4;
#X msg 331 213 \$1 5;
#X msg 332 240 \$1 6;
#X connect 1 0 8 0;
#X connect 2 0 9 0;
#X connect 3 0 10 0;
#X connect 4 0 11 0;
#X connect 5 0 12 0;
#X connect 6 0 13 0;
#X connect 8 0 7 0;
#X connect 9 0 7 0;
#X connect 10 0 7 0;
#X connect 11 0 7 0;
#X connect 12 0 7 0;
#X connect 13 0 7 0;
#X coords 0 -1 1 1 340 100 1 100 100;
#X restore 25 -347 pd switches;
#N canvas 279 144 228 299 audControls 0;
#X obj 84 81 knob 50 50 0 127 0 0 empty empty empty 0 -8 0 8 -262144
-1 -1 1800 1;
#X text 55 52 Audio Sensitivity;
#X msg 56 173 \$1 120 1;
#X obj 67 213 ctlout;
#X connect 0 0 2 0;
#X connect 2 0 3 0;
#X coords 0 -1 1 1 120 100 2 50 50;
#X restore 383 -346 pd audControls;
#N canvas 375 101 508 643 bg_controls 0;
#X obj 21 21 cnv 15 348 198 empty empty Trails 20 12 0 22 -232576 -66577
0;
#X obj 42 494 ctlout;
#X obj 43 68 grid grid2 120 0 127 100 0 127 1 1 1 1 1 419 -139;
#X obj 138 -63 loadbang;
#X msg 138 -31 color 255 255 255;
#X obj 42 460 list append 1;
#X obj 93 239 expr 127-$f1;
#X obj 315 68 vsl 15 100 0 127 0 0 empty empty Scale 0 -12 0 10 -262144
-1 -1 7400 1;
#X text 42 46 Velocity;
#X obj 177 68 grid grid2 120 0 127 100 0 127 1 1 1 1 1 554 -137;
#X text 176 46 Scale Anchor;
#X obj 103 301 expr 127-$f1;
#X msg 34 267 \$1 30;
#X msg 94 268 \$1 31;
#X msg 44 329 \$1 32;
#X obj 45 193 hsl 80 15 0 127 0 0 empty empty Alpha_Decay -2 -8 0 10
-262144 -1 -1 5700 1;
#X obj 153 193 hsl 80 15 0 127 0 0 empty empty Color_Decay -2 -8 0
10 -262144 -1 -1 7900 1;
#X obj 257 193 hsl 80 15 0 127 0 0 empty empty Tension -2 -8 0 10 -262144
-1 -1 1400 1;
#X msg 104 330 \$1 33;
#X msg 207 276 \$1 34;
#X msg 185 333 \$1 35;
#X msg 237 332 \$1 36;
#X msg 286 333 \$1 37;
#X connect 2 0 12 0;
#X connect 2 1 6 0;
#X connect 3 0 4 0;
#X connect 4 0 2 0;
#X connect 4 0 9 0;
#X connect 5 0 1 0;
#X connect 6 0 13 0;
#X connect 7 0 19 0;
#X connect 9 0 14 0;
#X connect 9 1 11 0;
#X connect 11 0 18 0;
#X connect 12 0 5 0;
#X connect 13 0 5 0;
#X connect 14 0 5 0;
#X connect 15 0 20 0;
#X connect 16 0 21 0;
#X connect 17 0 22 0;
#X connect 18 0 5 0;
#X connect 19 0 5 0;
#X connect 20 0 5 0;
#X connect 21 0 5 0;
#X connect 22 0 5 0;
#X coords 0 -1 1 1 348 200 2 20 20;
#X restore 341 -236 pd bg_controls;
